<svg width="96" height="102" viewBox="0 0 96 102" fill="none" xmlns="http://www.w3.org/2000/svg">
<path d="M13.1432 88.5715C13.0319 88.5699 12.9256 88.5252 12.8466 88.4466C12.7685 88.3677 12.7246 88.2611 12.7246 88.1501C12.7246 88.039 12.7685 87.9324 12.8466 87.8535L16.6242 84.0681C16.7031 83.9899 16.8097 83.9461 16.9208 83.9461C17.0318 83.9461 17.1384 83.9899 17.2174 84.0681C17.296 84.1483 17.3401 84.2562 17.3401 84.3686C17.3401 84.481 17.296 84.5888 17.2174 84.6691L13.4398 88.4466C13.36 88.5238 13.2542 88.5684 13.1432 88.5715ZM20.6983 81.0086C20.643 81.0091 20.5881 80.9983 20.5371 80.9768C20.4861 80.9553 20.4401 80.9236 20.4017 80.8837C20.3236 80.8048 20.2797 80.6982 20.2797 80.5871C20.2797 80.476 20.3236 80.3695 20.4017 80.2905L24.1793 76.513C24.2595 76.4343 24.3674 76.3903 24.4798 76.3903C24.5922 76.3903 24.7 76.4343 24.7803 76.513C24.8584 76.5919 24.9023 76.6985 24.9023 76.8096C24.9023 76.9206 24.8584 77.0272 24.7803 77.1061L20.9949 80.8837C20.9569 80.924 20.9109 80.956 20.8598 80.9775C20.8087 80.999 20.7537 81.0096 20.6983 81.0086ZM28.2613 73.4535C28.1499 73.4519 28.0436 73.4071 27.9647 73.3286C27.8865 73.2497 27.8427 73.1431 27.8427 73.032C27.8427 72.9209 27.8865 72.8143 27.9647 72.7354L31.7422 68.9501C31.8212 68.8719 31.9277 68.828 32.0388 68.828C32.1499 68.828 32.2565 68.8719 32.3354 68.9501C32.4141 69.0303 32.4581 69.1382 32.4581 69.2505C32.4581 69.3629 32.4141 69.4708 32.3354 69.551L28.5578 73.3286C28.478 73.4058 28.3722 73.4503 28.2613 73.4535ZM35.8164 65.8905C35.761 65.891 35.7062 65.8802 35.6552 65.8587C35.6042 65.8373 35.5581 65.8056 35.5198 65.7657C35.4416 65.6867 35.3978 65.5802 35.3978 65.4691C35.3978 65.358 35.4416 65.2514 35.5198 65.1725L39.2974 61.3949C39.3776 61.3163 39.4855 61.2722 39.5978 61.2722C39.7102 61.2722 39.8181 61.3163 39.8983 61.3949C39.9765 61.4739 40.0203 61.5804 40.0203 61.6915C40.0203 61.8026 39.9765 61.9092 39.8983 61.9881L36.113 65.7657C36.0749 65.806 36.0289 65.8379 35.9779 65.8594C35.9268 65.8809 35.8718 65.8915 35.8164 65.8905ZM43.3793 58.3354C43.268 58.3338 43.1617 58.289 43.0827 58.2105C43.0046 58.1316 42.9607 58.025 42.9607 57.914C42.9607 57.8029 43.0046 57.6963 43.0827 57.6174L44.8622 55.8301C44.9431 55.7637 45.0458 55.7298 45.1503 55.7349C45.2548 55.74 45.3536 55.7838 45.4276 55.8578C45.5016 55.9318 45.5454 56.0307 45.5506 56.1352C45.5557 56.2397 45.5218 56.3423 45.4554 56.4232L43.6759 58.2105C43.5961 58.2877 43.4903 58.3323 43.3793 58.3354Z" fill="black" stroke="black" stroke-width="0.0016"/>
<path d="M53.5335 51.8964C53.4442 51.897 53.3569 51.8698 53.2838 51.8184C53.1942 51.7528 53.1342 51.6545 53.1166 51.545C53.0991 51.4354 53.1255 51.3233 53.1901 51.233L56.2886 46.8779C56.3538 46.7868 56.4526 46.7254 56.5631 46.7071C56.6736 46.6888 56.7868 46.7151 56.8779 46.7803C56.969 46.8455 57.0304 46.9443 57.0487 47.0548C57.067 47.1653 57.0407 47.2785 56.9755 47.3696L53.8769 51.7169C53.8382 51.7721 53.7868 51.8173 53.7271 51.8485C53.6673 51.8797 53.6009 51.8962 53.5335 51.8964ZM59.7384 43.194C59.6519 43.1921 59.5678 43.1649 59.4964 43.1159C59.4051 43.0501 59.3433 42.9511 59.3244 42.8401C59.3054 42.7292 59.3307 42.6152 59.395 42.5228L62.5013 38.1755C62.5657 38.0847 62.6634 38.0231 62.7731 38.004C62.8828 37.985 62.9955 38.0102 63.0867 38.074C63.1319 38.1058 63.1702 38.1463 63.1995 38.1932C63.2288 38.2401 63.2483 38.2923 63.2571 38.3469C63.2658 38.4015 63.2635 38.4572 63.2503 38.5109C63.2371 38.5646 63.2134 38.615 63.1803 38.6594L60.0818 43.0145C60.0431 43.0697 59.9917 43.1148 59.932 43.146C59.8722 43.1773 59.8058 43.1937 59.7384 43.194ZM65.9433 34.4837C65.8562 34.4855 65.771 34.458 65.7013 34.4057C65.6555 34.3745 65.6165 34.3344 65.5865 34.2878C65.5565 34.2412 65.5361 34.1891 65.5267 34.1345C65.5172 34.0799 65.5188 34.024 65.5314 33.97C65.5439 33.916 65.5672 33.8651 65.5999 33.8203L68.7062 29.473C68.7704 29.383 68.8677 29.3221 68.9767 29.3038C69.0858 29.2855 69.1976 29.3113 69.2877 29.3755C69.3777 29.4396 69.4386 29.5369 69.4569 29.646C69.4752 29.755 69.4494 29.8669 69.3852 29.9569L66.2867 34.312C66.2476 34.3663 66.1959 34.4102 66.1361 34.4402C66.0763 34.4701 66.0101 34.485 65.9433 34.4837ZM72.1481 25.7813C72.061 25.783 71.9759 25.7556 71.9062 25.7033C71.8154 25.6389 71.7538 25.5412 71.7348 25.4315C71.7158 25.3218 71.7409 25.2091 71.8047 25.1179L74.9111 20.7628C74.9763 20.6717 75.075 20.6102 75.1855 20.592C75.296 20.5737 75.4093 20.6 75.5003 20.6652C75.5914 20.7304 75.6529 20.8291 75.6712 20.9396C75.6895 21.0502 75.6631 21.1634 75.5979 21.2545L72.4916 25.6096C72.452 25.6634 72.4003 25.707 72.3405 25.7368C72.2808 25.7667 72.2149 25.7819 72.1481 25.7813ZM78.353 17.0789C78.2659 17.0806 78.1808 17.0531 78.1111 17.0008C78.0203 16.9364 77.9587 16.8387 77.9397 16.7291C77.9207 16.6194 77.9458 16.5067 78.0096 16.4155L81.116 12.0603C81.1478 12.0151 81.1883 11.9768 81.2352 11.9475C81.282 11.9183 81.3343 11.8987 81.3889 11.89C81.4434 11.8812 81.4992 11.8835 81.5529 11.8967C81.6065 11.9099 81.657 11.9337 81.7013 11.9667C81.7921 12.0311 81.8537 12.1288 81.8727 12.2384C81.8917 12.3481 81.8666 12.4608 81.8028 12.552L78.6964 16.8994C78.6582 16.955 78.6069 17.0005 78.5471 17.0318C78.4872 17.0631 78.4206 17.0793 78.353 17.0789Z" fill="black" stroke="black" stroke-width="0.0016"/>
<path d="M89.9582 13.3867C91.1939 15.0711 91.7922 17.1393 91.6467 19.2233C91.5011 21.3073 90.6212 23.2722 89.1633 24.7685C87.7054 26.2647 85.764 27.1955 83.6845 27.3952C81.6049 27.5948 79.522 27.0505 77.806 25.8589L77.7436 25.8121C77.3313 25.5192 76.8198 25.4016 76.321 25.485C75.8222 25.5684 75.3767 25.8459 75.0821 26.257L57.1621 51.3887L59.0353 53.3165L78.2041 26.4365C78.6519 26.9368 79.1576 27.3821 79.7104 27.7633C83.6441 30.4794 89.0841 29.5428 91.886 25.6716C93.2485 23.7831 93.8103 21.4331 93.4493 19.1326C93.0883 16.8321 91.8336 14.7671 89.9582 13.3867Z" fill="white" stroke="black" stroke-width="0.0016"/>
<path d="M47.9843 57.359L26.1853 79.1659C25.8164 79.5373 25.6094 80.0395 25.6094 80.563C25.6094 81.0864 25.8164 81.5886 26.1853 81.96V81.9756C26.3492 82.1395 26.5053 82.3112 26.6536 82.483L49.8809 59.2556L48.0936 56.1259L47.2195 56.0244L47.9843 57.359Z" fill="white" stroke="black" stroke-width="0.0016"/>
<path d="M26.9811 82.9053C29.5021 86.3394 29.2133 91.2175 26.146 94.3238C24.6586 95.8305 22.6793 96.7524 20.5689 96.9215C18.4585 97.0905 16.3577 96.4955 14.6494 95.2448C14.9151 95.6043 15.2073 95.9435 15.5236 96.2594C16.3459 97.0828 17.3231 97.7353 18.3988 98.1793C19.4745 98.6233 20.6275 98.85 21.7912 98.8464C22.9549 98.8427 24.1064 98.6088 25.1793 98.1581C26.2522 97.7075 27.2254 97.0489 28.0426 96.2204C31.4065 92.8253 31.4299 87.2994 28.0972 83.8731C27.7515 83.5213 27.3783 83.1977 26.9811 82.9053Z" fill="white" stroke="black" stroke-width="0.0016"/>
<path d="M59.0357 54.4873C58.88 54.4876 58.7259 54.4567 58.5825 54.3963C58.439 54.336 58.3092 54.2475 58.2005 54.1361L56.2961 52.1848L53.6581 52.8248C53.4812 52.8674 53.2968 52.8684 53.1194 52.8278C52.942 52.7872 52.7764 52.706 52.6357 52.5907C52.4966 52.4737 52.3862 52.3262 52.3131 52.1598C52.24 51.9933 52.2062 51.8123 52.2142 51.6307L52.3547 48.657L49.7088 48.0014C49.5244 47.9551 49.354 47.8646 49.2124 47.7376C49.0709 47.6107 48.9623 47.4512 48.8962 47.2729C48.8301 47.0946 48.8085 46.9029 48.8331 46.7143C48.8577 46.5258 48.9279 46.346 49.0376 46.1907L67.4259 20.4034C67.1824 20.2618 66.9478 20.1054 66.7235 19.9351C65.3853 18.9523 64.313 17.6517 63.6033 16.1507C62.8936 14.6498 62.5688 12.9957 62.6584 11.3379C62.7479 9.67999 63.2489 8.07052 64.1161 6.65472C64.9833 5.23892 66.1894 4.06137 67.6256 3.22837C69.0618 2.39536 70.6828 1.93313 72.3424 1.88339C74.0019 1.83366 75.6477 2.19798 77.1312 2.94348C78.6147 3.68898 79.8892 4.79218 80.8396 6.1535C81.7901 7.51483 82.3865 9.09141 82.5752 10.7409C84.194 10.3854 85.8759 10.4382 87.4693 10.8946C89.0627 11.3511 90.5175 12.1968 91.7026 13.3555C92.8876 14.5143 93.7658 15.9497 94.2579 17.5324C94.7501 19.1151 94.8407 20.7954 94.5216 22.4219C94.2025 24.0483 93.4838 25.5698 92.4301 26.8493C91.3765 28.1288 90.0211 29.126 88.4861 29.7511C86.951 30.3762 85.2845 30.6096 83.6368 30.4302C81.9891 30.2508 80.4119 29.6642 79.0474 28.7234C78.8132 28.5595 78.5947 28.3956 78.3761 28.2161L59.9957 53.9956C59.8944 54.1343 59.7648 54.25 59.6154 54.3347C59.4661 54.4195 59.3004 54.4715 59.1293 54.4873H59.0357ZM56.6708 49.7185C56.8264 49.7182 56.9805 49.7491 57.124 49.8094C57.2674 49.8698 57.3973 49.9583 57.5059 50.0697L58.903 51.498L77.2522 25.7575C77.3528 25.6152 77.4845 25.4976 77.6374 25.4138C77.7902 25.3299 77.9601 25.282 78.1342 25.2736C78.3083 25.2629 78.4826 25.2909 78.6446 25.3557C78.8066 25.4205 78.9521 25.5204 79.0708 25.6483C79.4609 26.0813 79.901 26.4664 80.382 26.7956C83.7771 29.1526 88.5147 28.3331 90.9342 24.9848C91.9034 23.6406 92.4103 22.0182 92.3788 20.3613C92.3473 18.7044 91.7791 17.1025 90.7595 15.7961C89.7399 14.4897 88.3239 13.5493 86.7243 13.1163C85.1247 12.6833 83.4277 12.7809 81.8883 13.3946C81.7072 13.4665 81.5109 13.492 81.3174 13.4688C81.1238 13.4457 80.9391 13.3745 80.78 13.2619C80.6203 13.1469 80.4918 12.9939 80.406 12.8167C80.3201 12.6396 80.2797 12.4439 80.2883 12.2473C80.3664 10.5917 79.9051 8.95551 78.9738 7.58449C78.0424 6.21348 76.6914 5.1817 75.1236 4.64413C73.5557 4.10657 71.8558 4.09226 70.2792 4.60336C68.7025 5.11446 67.3343 6.12336 66.38 7.4785C63.9996 10.858 64.78 15.6034 68.1127 18.0463C68.5783 18.3944 69.084 18.6853 69.6191 18.9126C69.7802 18.9819 69.9235 19.0866 70.0384 19.2191C70.1533 19.3516 70.2367 19.5083 70.2825 19.6775C70.3288 19.8452 70.3374 20.021 70.3077 20.1924C70.278 20.3638 70.2108 20.5264 70.1108 20.6687L51.9488 46.1439L53.8454 46.62C54.1079 46.6846 54.3399 46.8381 54.5021 47.0543C54.6643 47.2705 54.7466 47.5362 54.7352 47.8063L54.6259 50.179L56.3976 49.7497C56.487 49.7278 56.5788 49.7173 56.6708 49.7185Z" fill="#7893F5" stroke="#7893F5" stroke-width="2"/>
<path d="M21.7674 100.021C20.4109 100.022 19.0685 99.7467 17.8219 99.2118C16.5754 98.6769 15.4508 97.8938 14.5168 96.9101C13.5828 95.9264 12.8589 94.7628 12.3892 93.4903C11.9195 92.2177 11.7139 90.8628 11.7849 89.5082C9.1364 89.5827 6.56674 88.6021 4.64124 86.782C2.71574 84.9619 1.59215 82.4514 1.51763 79.8029C1.44311 77.1543 2.42377 74.5846 4.24388 72.6591C6.06399 70.7336 8.57445 69.6101 11.223 69.5355H11.2698C13.8702 69.5251 16.3705 70.5371 18.2318 72.3531C18.4362 72.5471 18.6291 72.753 18.8093 72.9697L41.2015 50.5775C41.3725 50.4044 41.5937 50.2896 41.8337 50.2497L45.502 49.6331C45.6881 49.6021 45.8788 49.6165 46.0581 49.6751C46.2374 49.7337 46.3998 49.8348 46.5317 49.9697C46.6635 50.1045 46.7608 50.2693 46.8152 50.4499C46.8697 50.6304 46.8797 50.8215 46.8445 51.0068L46.142 54.7141L48.2415 54.9638C48.4226 54.987 48.5958 55.052 48.7475 55.1536C48.8992 55.2551 49.0253 55.3906 49.1157 55.5492L50.903 58.679C51.0284 58.9018 51.0779 59.1593 51.0441 59.4127C51.0103 59.6661 50.8951 59.9017 50.7157 60.0838L28.3235 82.476C28.5342 82.6633 28.7371 82.8585 28.9323 83.0536C30.3004 84.4606 31.2241 86.2392 31.5884 88.1677C31.9527 90.0961 31.7413 92.0891 30.9807 93.8983C30.2201 95.7074 28.9439 97.2527 27.3111 98.3416C25.6783 99.4304 23.7611 100.015 21.7986 100.021H21.7674ZM13.143 86.9794C13.3172 86.9789 13.4894 87.0175 13.6467 87.0924C13.804 87.1673 13.9425 87.2766 14.0519 87.4122C14.1613 87.5479 14.2388 87.7063 14.2787 87.8759C14.3186 88.0455 14.3199 88.2219 14.2825 88.3921C14.0402 89.51 14.0512 90.668 14.3147 91.7811C14.5782 92.8942 15.0875 93.9342 15.8053 94.8248C16.523 95.7155 17.431 96.4341 18.4627 96.9282C19.4944 97.4222 20.6235 97.6791 21.7674 97.6799H21.7908C22.8008 97.6782 23.8005 97.4759 24.7317 97.0847C25.6628 96.6934 26.507 96.1211 27.2152 95.4009C30.1186 92.4585 30.1342 87.6507 27.2542 84.6848C26.8487 84.2696 26.3984 83.9006 25.9118 83.5843C25.7637 83.4911 25.6389 83.3653 25.5469 83.2165C25.4549 83.0677 25.3982 82.8999 25.381 82.7258C25.3624 82.5521 25.3829 82.3764 25.4409 82.2117C25.499 82.0469 25.5932 81.8972 25.7167 81.7736L48.4288 59.0614L47.3752 57.2194L44.6201 56.8916C44.4616 56.8713 44.3087 56.8194 44.1706 56.739C44.0325 56.6586 43.912 56.5512 43.8162 56.4233C43.7205 56.2937 43.6531 56.1455 43.6181 55.9882C43.5832 55.831 43.5815 55.6681 43.6132 55.5102L44.2298 52.2165L42.5908 52.4975L19.5118 75.5765C19.3888 75.7009 19.2392 75.7957 19.0743 75.8539C18.9093 75.912 18.7333 75.9319 18.5596 75.9121C18.3863 75.8922 18.2194 75.8344 18.0711 75.7426C17.9227 75.6509 17.7963 75.5275 17.701 75.3814C17.3869 74.8908 17.0177 74.4378 16.6006 74.0311C13.6347 71.1511 8.8269 71.1668 5.88446 74.078C4.70641 75.2437 3.93842 76.7603 3.69587 78.3998C3.45332 80.0393 3.7493 81.7132 4.53935 83.1702C5.3294 84.6271 6.57085 85.7883 8.07723 86.4794C9.5836 87.1705 11.2736 87.3542 12.8932 87.0029C12.9756 86.9873 13.0592 86.9795 13.143 86.9794Z" fill="#7893F5" stroke="#7893F5" stroke-width="2"/>
<path d="M45.3386 23.2758L43.0205 23.6504L45.1482 36.8154L47.4662 36.4407L45.3386 23.2758Z" fill="black" stroke="black" stroke-width="0.00160455"/>
<path d="M21.9878 44.2987L21.6094 46.6094L34.7325 48.7584L35.1109 46.4477L21.9878 44.2987Z" fill="black" stroke="black" stroke-width="0.0016"/>
<path d="M31.6967 31.4625L30.041 33.1182L38.4639 41.5411L40.1196 39.8854L31.6967 31.4625Z" fill="black" stroke="black" stroke-width="0.0016"/>
<path d="M65.1421 53.9657L64.7637 56.2764L77.8868 58.4254L78.2652 56.1147L65.1421 53.9657Z" fill="black" stroke="black" stroke-width="0.0016"/>
<path d="M54.9753 66.558L52.6572 66.9326L54.7849 80.0976L57.1029 79.723L54.9753 66.558Z" fill="black" stroke="black" stroke-width="0.00160455"/>
<path d="M61.3549 61.1207L59.6992 62.7764L68.1221 71.1993L69.7778 69.5436L61.3549 61.1207Z" fill="black" stroke="black" stroke-width="0.0016"/>
</svg>
