<svg width="98" height="100" viewBox="0 0 98 100" fill="none" xmlns="http://www.w3.org/2000/svg">
<path d="M63.5779 56C64.7082 56 65.6245 55.058 65.6245 53.896C65.6245 52.734 64.7082 51.792 63.5779 51.792C62.4476 51.792 61.5312 52.734 61.5312 53.896C61.5312 55.058 62.4476 56 63.5779 56Z" fill="#7893F5"/>
<path d="M93.6425 29.992H74.4837V40.572C74.4837 41.428 73.9156 42.54 73.2386 43.028L64.8498 48.988C64.1494 49.476 63.0094 49.476 62.3363 48.988L53.9475 43.028C53.2627 42.54 52.6946 41.428 52.6946 40.572V26.932C52.6946 26.068 53.1809 25.86 53.7724 26.472L56.6205 29.408C57.2119 30.02 58.3987 30.516 59.2274 30.516H62.0639C62.9004 30.516 64.2817 30.516 65.1105 30.516H67.9469C68.6784 30.516 69.5967 30.116 70.2192 29.624C68.9819 29.032 68.1065 27.736 68.1065 26.224V3.752C68.1065 1.692 66.4801 0 64.4373 0H32.8509C30.8082 0 29.1779 1.7 29.1779 3.752V26.232C29.1779 26.416 29.0962 26.568 29.0807 26.744L35.9987 25.532C36.8352 25.384 37.4267 25.968 37.3449 26.82L37.2749 27.428C37.1854 28.28 36.5045 29.304 35.7458 29.692L30.1857 32.596C29.4386 32.988 29.2324 33.872 29.7188 34.568L30.209 35.264C30.7032 35.972 31.7615 36.356 32.5864 36.136L37.1815 34.896C37.9986 34.668 39.3488 34.548 40.1853 34.612L51.1577 35.46V41.384C51.1577 42.24 51.7102 43.352 52.4105 43.84L62.3207 50.888C63.0055 51.372 64.1455 51.372 64.8342 50.888L66.3711 49.804C66.4023 50.212 66.4023 50.624 66.3322 50.956L62.204 72.944C62.0367 73.788 61.2312 74.492 60.3869 74.492H60.099C59.2624 74.492 58.4804 73.788 58.3442 72.936L56.7022 61.172C56.5894 60.312 55.7917 59.616 54.9708 59.616H53.4416C52.5973 59.616 51.8269 60.312 51.7335 61.18L50.3561 72.936C50.255 73.788 49.4885 74.492 48.648 74.492H48.3212C47.4808 74.492 46.7298 73.78 46.6481 72.928L45.2318 56.936C45.1501 56.084 44.4186 55.372 43.5743 55.372H40.5277C39.6795 55.372 38.8819 56.076 38.7651 56.928L36.4734 72.928C36.3567 73.78 35.5551 74.484 34.7341 74.484H34.1661C33.3217 74.484 32.5475 73.78 32.4229 72.928L29.0534 47.488C28.9445 46.628 28.4231 45.364 27.9251 44.68L23.4427 38.612C22.9213 37.924 22.6684 36.676 22.8319 35.836L24.1003 29.984H3.63411C1.63029 29.984 0 31.684 0 33.74V66.244C0 68.308 1.63029 70 3.63411 70H25.5399C27.5476 70 29.1779 71.672 29.1779 73.756V96.232C29.1779 98.288 30.8082 99.984 32.8509 99.984H64.4296C66.4723 99.984 68.0987 98.288 68.0987 96.232V73.732C68.0987 71.668 69.7251 69.988 71.7406 69.988H93.6425C95.6502 69.988 97.2766 68.292 97.2766 66.236V33.74C97.2727 31.688 95.6424 29.992 93.6425 29.992Z" fill="#7893F5"/>
</svg>
