<svg width="90" height="90" viewBox="0 0 90 90" fill="none" xmlns="http://www.w3.org/2000/svg">
<path d="M0 45C0 20.1472 20.1472 0 45 0V0C69.8528 0 90 20.1472 90 45V45C90 69.8528 69.8528 90 45 90V90C20.1472 90 0 69.8528 0 45V45Z" fill="white"/>
<path d="M55.9872 50.4464C56.787 50.4464 57.4354 49.7493 57.4354 48.8892C57.4354 48.0292 56.787 47.332 55.9872 47.332C55.1874 47.332 54.5391 48.0292 54.5391 48.8892C54.5391 49.7493 55.1874 50.4464 55.9872 50.4464Z" fill="#7893F5"/>
<path d="M77.2606 31.1976H63.704V39.0281C63.704 39.6616 63.302 40.4846 62.823 40.8458L56.8871 45.2569C56.3915 45.6181 55.5849 45.6181 55.1086 45.2569L49.1727 40.8458C48.6882 40.4846 48.2862 39.6616 48.2862 39.0281V28.9329C48.2862 28.2934 48.6303 28.1395 49.0488 28.5924L51.0642 30.7654C51.4826 31.2184 52.3224 31.5855 52.9088 31.5855H54.9158C55.5078 31.5855 56.4851 31.5855 57.0716 31.5855H59.0786C59.5962 31.5855 60.246 31.2894 60.6865 30.9253C59.811 30.4871 59.1915 29.5279 59.1915 28.4089V11.7769C59.1915 10.2523 58.0407 9 56.5953 9H34.245C32.7996 9 31.646 10.2582 31.646 11.7769V28.4148C31.646 28.551 31.5882 28.6635 31.5772 28.7937L36.4723 27.8967C37.0643 27.7872 37.4828 28.2194 37.4249 28.85L37.3754 29.3C37.3121 29.9306 36.8303 30.6884 36.2934 30.9756L32.3591 33.1249C31.8305 33.415 31.6846 34.0693 32.0287 34.5844L32.3756 35.0995C32.7253 35.6235 33.4741 35.9077 34.0578 35.7449L37.3093 34.8272C37.8875 34.6584 38.8428 34.5696 39.4348 34.617L47.1987 35.2446V39.6291C47.1987 40.2626 47.5897 41.0856 48.0852 41.4468L55.0976 46.6631C55.5821 47.0214 56.3888 47.0214 56.8761 46.6631L57.9636 45.8609C57.9856 46.1628 57.9856 46.4678 57.9361 46.7135L55.015 62.9872C54.8966 63.6119 54.3267 64.1329 53.7292 64.1329H53.5255C52.9336 64.1329 52.3802 63.6119 52.2838 62.9813L51.122 54.2745C51.0421 53.638 50.4777 53.1229 49.8968 53.1229H48.8148C48.2174 53.1229 47.6722 53.638 47.6062 54.2804L46.6315 62.9813C46.56 63.6119 46.0176 64.1329 45.4229 64.1329H45.1916C44.597 64.1329 44.0656 63.6059 44.0078 62.9754L43.0056 51.1394C42.9478 50.5088 42.4302 49.9818 41.8328 49.9818H39.677C39.0768 49.9818 38.5124 50.5029 38.4299 51.1335L36.8082 62.9754C36.7256 63.6059 36.1585 64.127 35.5776 64.127H35.1756C34.5782 64.127 34.0303 63.6059 33.9422 62.9754L31.5579 44.1467C31.4808 43.5102 31.1119 42.5747 30.7595 42.0685L27.5879 37.5775C27.2189 37.0683 27.04 36.1446 27.1556 35.5229L28.0531 31.1917H13.5715C12.1536 31.1917 11 32.4499 11 33.9716V58.0284C11 59.556 12.1536 60.8083 13.5715 60.8083H29.0718C30.4925 60.8083 31.646 62.0458 31.646 63.5882V80.2231C31.646 81.7448 32.7996 83 34.245 83H56.5898C58.0352 83 59.186 81.7448 59.186 80.2231V63.5704C59.186 62.0428 60.3368 60.7994 61.763 60.7994H77.2606C78.6812 60.7994 79.832 59.5442 79.832 58.0225V33.9716C79.8293 32.4529 78.6757 31.1976 77.2606 31.1976Z" fill="#7893F5"/>
</svg>
