<svg width="53" height="52" viewBox="0 0 53 52" fill="none" xmlns="http://www.w3.org/2000/svg">
<path d="M2.66699 50V46C2.66699 37.8997 9.23347 31.3333 17.3337 31.3333H25.3337C33.4339 31.3333 40.0003 37.8997 40.0003 46V50M10.667 50V42M32.0003 50V42M36.0003 10L36.8982 8.65315C37.8587 7.21229 39.8326 6.87419 41.2179 7.9132C42.6865 9.01459 42.839 11.1613 41.5411 12.4593L39.6099 14.3905C39.0062 14.9942 38.667 15.813 38.667 16.6667M38.667 20.6667V21.2M28.8753 7.06136C31.0497 3.99853 34.6249 2 38.667 2C45.2945 2 50.667 7.37259 50.667 14C50.667 20.6274 45.2945 26 38.667 26C35.3467 26 32.3414 24.6515 30.1686 22.4723M32.0003 15.3334C32.0003 9.44229 27.2246 4.66667 21.3337 4.66667C15.4426 4.66667 10.667 9.44229 10.667 15.3334C10.667 21.2245 15.4426 26 21.3337 26C23.5502 26 25.6089 25.324 27.3147 24.1667C30.1425 22.2483 32.0003 19.0078 32.0003 15.3334Z" stroke="#7893F5" stroke-width="3.73333" stroke-linecap="round" stroke-linejoin="round"/>
</svg>
