<svg width="84" height="76" viewBox="0 0 84 76" fill="none" xmlns="http://www.w3.org/2000/svg">
<path fill-rule="evenodd" clip-rule="evenodd" d="M63.5405 2.00288C58.4393 -1.25079 52.1141 0.083882 49.5385 5.0675L36.2968 30.6953L25.6857 28.1645C25.897 21.4611 21.1033 15.0169 14.5254 13.4487C7.57945 11.7934 1.28057 16.2008 0.453548 23.2952C-0.371782 30.3892 4.58767 37.4834 11.5345 39.1402C16.3012 40.2767 20.7633 38.5555 23.3603 35.072L36.3565 38.1707L30.4593 49.5834C25.9785 49.2158 21.712 51.3361 19.5481 55.5216C16.3962 61.6227 18.9039 69.795 25.1471 73.778C31.3924 77.761 39.0084 76.0446 42.1603 69.9453C45.145 64.1687 43.0527 56.5356 37.5211 52.3596L42.3358 43.04L71.5149 49.9975C77.1901 51.3512 82.3486 47.6309 83.0234 41.8352L47.3528 33.3312L63.5405 2.00288ZM16.0989 34.4435C12.9153 35.8442 8.94952 34.149 7.24136 30.6573C5.53319 27.1657 6.72947 23.1993 9.91291 21.7987C13.0972 20.3977 17.0623 22.0932 18.7705 25.5849C20.4786 29.0765 19.2832 33.0426 16.0989 34.4435ZM23.3949 65.2989C25.1031 68.7906 29.069 70.4858 32.2526 69.0852C35.4368 67.6842 36.6322 63.7181 34.9241 60.2265C33.216 56.7349 29.2509 55.0393 26.0665 56.4403C22.8829 57.841 21.6868 61.8073 23.3949 65.2989Z" fill="#7893F5"/>
</svg>
