<svg width="94" height="96" viewBox="0 0 94 96" fill="none" xmlns="http://www.w3.org/2000/svg">
<mask id="path-1-inside-1_22145_3973" fill="white">
<path d="M41.8388 95.8732C36.7873 95.8711 31.9435 93.863 28.3723 90.2903C24.8011 86.7177 22.7949 81.873 22.7949 76.8215V74.6674C22.7949 74.3569 22.9183 74.0591 23.1378 73.8395C23.3574 73.62 23.6552 73.4966 23.9657 73.4966H27.4778C27.7883 73.4966 28.0861 73.62 28.3057 73.8395C28.5252 74.0591 28.6486 74.3569 28.6486 74.6674V76.8215C28.6486 84.0956 34.5647 90.0196 41.8388 90.0196C49.113 90.0196 55.0369 84.0956 55.0369 76.8215V33.044C55.0369 24.7786 61.7647 18.0508 70.03 18.0508C78.2954 18.0508 85.031 24.7786 85.031 33.044V38.6401C85.031 38.9505 84.9077 39.2483 84.6881 39.4679C84.4686 39.6874 84.1708 39.8108 83.8603 39.8108H80.3481C80.0376 39.8108 79.7398 39.6874 79.5203 39.4679C79.3007 39.2483 79.1774 38.9505 79.1774 38.6401V33.044C79.1774 28.002 75.072 23.9044 70.03 23.9044C67.6067 23.9065 65.2833 24.8701 63.5697 26.5836C61.8562 28.2972 60.8926 30.6206 60.8905 33.044V76.8215C60.8905 81.8743 58.8833 86.7202 55.3104 90.2931C51.7375 93.866 46.8917 95.8732 41.8388 95.8732ZM25.1364 75.8381V76.8215C25.0883 79.0458 25.4849 81.2573 26.3029 83.3263C27.1208 85.3953 28.3437 87.2801 29.8998 88.8702C31.4559 90.4603 33.3138 91.7236 35.3647 92.5861C37.4155 93.4486 39.6179 93.8929 41.8427 93.8929C44.0675 93.8929 46.27 93.4486 48.3208 92.5861C50.3716 91.7236 52.2296 90.4603 53.7856 88.8702C55.3417 87.2801 56.5646 85.3953 57.3826 83.3263C58.2006 81.2573 58.5971 79.0458 58.5491 76.8215V33.044C58.5491 26.7142 63.7003 21.563 70.03 21.563C76.3598 21.563 81.5188 26.7142 81.5188 33.044V37.4693H82.6896V33.044C82.6896 26.0664 77.0076 20.3922 70.03 20.3922C63.0525 20.3922 57.3783 26.0664 57.3783 33.044V76.8215C57.3783 85.3913 50.4086 92.361 41.8388 92.361C33.2691 92.361 26.3071 85.3913 26.3071 76.8215V75.8381H25.1364Z"/>
</mask>
<path d="M41.8388 95.8732C36.7873 95.8711 31.9435 93.863 28.3723 90.2903C24.8011 86.7177 22.7949 81.873 22.7949 76.8215V74.6674C22.7949 74.3569 22.9183 74.0591 23.1378 73.8395C23.3574 73.62 23.6552 73.4966 23.9657 73.4966H27.4778C27.7883 73.4966 28.0861 73.62 28.3057 73.8395C28.5252 74.0591 28.6486 74.3569 28.6486 74.6674V76.8215C28.6486 84.0956 34.5647 90.0196 41.8388 90.0196C49.113 90.0196 55.0369 84.0956 55.0369 76.8215V33.044C55.0369 24.7786 61.7647 18.0508 70.03 18.0508C78.2954 18.0508 85.031 24.7786 85.031 33.044V38.6401C85.031 38.9505 84.9077 39.2483 84.6881 39.4679C84.4686 39.6874 84.1708 39.8108 83.8603 39.8108H80.3481C80.0376 39.8108 79.7398 39.6874 79.5203 39.4679C79.3007 39.2483 79.1774 38.9505 79.1774 38.6401V33.044C79.1774 28.002 75.072 23.9044 70.03 23.9044C67.6067 23.9065 65.2833 24.8701 63.5697 26.5836C61.8562 28.2972 60.8926 30.6206 60.8905 33.044V76.8215C60.8905 81.8743 58.8833 86.7202 55.3104 90.2931C51.7375 93.866 46.8917 95.8732 41.8388 95.8732ZM25.1364 75.8381V76.8215C25.0883 79.0458 25.4849 81.2573 26.3029 83.3263C27.1208 85.3953 28.3437 87.2801 29.8998 88.8702C31.4559 90.4603 33.3138 91.7236 35.3647 92.5861C37.4155 93.4486 39.6179 93.8929 41.8427 93.8929C44.0675 93.8929 46.27 93.4486 48.3208 92.5861C50.3716 91.7236 52.2296 90.4603 53.7856 88.8702C55.3417 87.2801 56.5646 85.3953 57.3826 83.3263C58.2006 81.2573 58.5971 79.0458 58.5491 76.8215V33.044C58.5491 26.7142 63.7003 21.563 70.03 21.563C76.3598 21.563 81.5188 26.7142 81.5188 33.044V37.4693H82.6896V33.044C82.6896 26.0664 77.0076 20.3922 70.03 20.3922C63.0525 20.3922 57.3783 26.0664 57.3783 33.044V76.8215C57.3783 85.3913 50.4086 92.361 41.8388 92.361C33.2691 92.361 26.3071 85.3913 26.3071 76.8215V75.8381H25.1364Z" fill="#7893F5"/>
<path d="M41.8388 95.8732L41.8376 98.8732H41.8388V95.8732ZM22.7949 76.8215H25.7949H22.7949ZM80.3481 39.8108V42.8108V39.8108ZM70.03 23.9044V20.9044L70.0275 20.9044L70.03 23.9044ZM60.8905 33.044L57.8905 33.0414V33.044H60.8905ZM60.8905 76.8215H57.8905H60.8905ZM25.1364 75.8381V72.8381H22.1364V75.8381H25.1364ZM25.1364 76.8215L28.1357 76.8863L28.1364 76.8539V76.8215H25.1364ZM41.8427 93.8929V96.8929V93.8929ZM58.5491 76.8215H55.5491V76.8539L55.5498 76.8863L58.5491 76.8215ZM81.5188 37.4693H78.5188V40.4693H81.5188V37.4693ZM82.6896 37.4693V40.4693H85.6896V37.4693H82.6896ZM26.3071 75.8381H29.3071V72.8381H26.3071V75.8381ZM41.8401 92.8732C37.584 92.8715 33.5029 91.1795 30.494 88.1695L26.2505 92.4112C30.3841 96.5465 35.9907 98.8708 41.8376 98.8732L41.8401 92.8732ZM30.494 88.1695C27.4852 85.1594 25.7949 81.0775 25.7949 76.8215H19.7949C19.7949 82.6684 22.117 88.276 26.2505 92.4112L30.494 88.1695ZM25.7949 76.8215V74.6674H19.7949V76.8215H25.7949ZM25.7949 74.6674C25.7949 75.1525 25.6022 75.6178 25.2591 75.9609L21.0165 71.7182C20.2343 72.5004 19.7949 73.5612 19.7949 74.6674H25.7949ZM25.2591 75.9609C24.9161 76.3039 24.4508 76.4966 23.9657 76.4966V70.4966C22.8595 70.4966 21.7987 70.9361 21.0165 71.7182L25.2591 75.9609ZM23.9657 76.4966H27.4778V70.4966H23.9657V76.4966ZM27.4778 76.4966C26.9927 76.4966 26.5274 76.3039 26.1844 75.9609L30.427 71.7182C29.6448 70.9361 28.584 70.4966 27.4778 70.4966V76.4966ZM26.1844 75.9609C25.8413 75.6178 25.6486 75.1525 25.6486 74.6674H31.6486C31.6486 73.5612 31.2092 72.5004 30.427 71.7182L26.1844 75.9609ZM25.6486 74.6674V76.8215H31.6486V74.6674H25.6486ZM25.6486 76.8215C25.6486 85.7502 32.9055 93.0196 41.8388 93.0196V87.0196C36.2238 87.0196 31.6486 82.4411 31.6486 76.8215H25.6486ZM41.8388 93.0196C50.7698 93.0196 58.0369 85.7525 58.0369 76.8215H52.0369C52.0369 82.4388 47.4561 87.0196 41.8388 87.0196V93.0196ZM58.0369 76.8215V33.044H52.0369V76.8215H58.0369ZM58.0369 33.044C58.0369 26.4354 63.4215 21.0508 70.03 21.0508V15.0508C60.1078 15.0508 52.0369 23.1217 52.0369 33.044H58.0369ZM70.03 21.0508C76.6406 21.0508 82.031 26.4375 82.031 33.044H88.031C88.031 23.1197 79.9502 15.0508 70.03 15.0508V21.0508ZM82.031 33.044V38.6401H88.031V33.044H82.031ZM82.031 38.6401C82.031 38.1549 82.2238 37.6896 82.5668 37.3466L86.8094 41.5892C87.5916 40.8071 88.031 39.7462 88.031 38.6401H82.031ZM82.5668 37.3466C82.9098 37.0035 83.3751 36.8108 83.8603 36.8108V42.8108C84.9665 42.8108 86.0273 42.3713 86.8094 41.5892L82.5668 37.3466ZM83.8603 36.8108H80.3481V42.8108H83.8603V36.8108ZM80.3481 36.8108C80.8333 36.8108 81.2985 37.0035 81.6416 37.3466L77.3989 41.5892C78.1811 42.3713 79.2419 42.8108 80.3481 42.8108V36.8108ZM81.6416 37.3466C81.9846 37.6896 82.1774 38.1549 82.1774 38.6401H76.1774C76.1774 39.7462 76.6168 40.8071 77.3989 41.5892L81.6416 37.3466ZM82.1774 38.6401V33.044H76.1774V38.6401H82.1774ZM82.1774 33.044C82.1774 26.3418 76.7255 20.9044 70.03 20.9044V26.9044C73.4185 26.9044 76.1774 29.6622 76.1774 33.044H82.1774ZM70.0275 20.9044C66.8094 20.9072 63.7239 22.1868 61.4484 24.4623L65.691 28.7049C66.8426 27.5534 68.404 26.9058 70.0326 26.9044L70.0275 20.9044ZM61.4484 24.4623C59.1729 26.7378 57.8933 29.8233 57.8905 33.0414L63.8905 33.0465C63.8919 31.418 64.5395 29.8565 65.691 28.7049L61.4484 24.4623ZM57.8905 33.044V76.8215H63.8905V33.044H57.8905ZM57.8905 76.8215C57.8905 81.0787 56.1994 85.1615 53.1891 88.1718L57.4317 92.4144C61.5672 88.2789 63.8905 82.67 63.8905 76.8215H57.8905ZM53.1891 88.1718C50.1788 91.1821 46.096 92.8732 41.8388 92.8732V98.8732C47.6873 98.8732 53.2962 96.5499 57.4317 92.4144L53.1891 88.1718ZM22.1364 75.8381V76.8215H28.1364V75.8381H22.1364ZM22.1371 76.7567C22.0804 79.3803 22.5481 81.9888 23.513 84.4293L29.0927 82.2233C28.4216 80.5258 28.0962 78.7113 28.1357 76.8863L22.1371 76.7567ZM23.513 84.4293C24.4778 86.8697 25.9202 89.0929 27.7557 90.9685L32.0439 86.7719C30.7672 85.4673 29.7639 83.9209 29.0927 82.2233L23.513 84.4293ZM27.7557 90.9685C29.5911 92.844 31.7826 94.3342 34.2017 95.3515L36.5277 89.8207C34.845 89.1131 33.3207 88.0765 32.0439 86.7719L27.7557 90.9685ZM34.2017 95.3515C36.6207 96.3688 39.2185 96.8929 41.8427 96.8929V90.8929C40.0173 90.8929 38.2103 90.5284 36.5277 89.8207L34.2017 95.3515ZM41.8427 96.8929C44.467 96.8929 47.0648 96.3688 49.4838 95.3515L47.1578 89.8207C45.4751 90.5284 43.6681 90.8929 41.8427 90.8929V96.8929ZM49.4838 95.3515C51.9028 94.3342 54.0943 92.844 55.9298 90.9685L51.6415 86.7719C50.3648 88.0765 48.8404 89.1131 47.1578 89.8207L49.4838 95.3515ZM55.9298 90.9685C57.7652 89.0929 59.2077 86.8697 60.1725 84.4293L54.5927 82.2233C53.9216 83.9209 52.9182 85.4673 51.6415 86.7719L55.9298 90.9685ZM60.1725 84.4293C61.1373 81.9888 61.6051 79.3803 61.5484 76.7567L55.5498 76.8863C55.5892 78.7113 55.2638 80.5258 54.5927 82.2233L60.1725 84.4293ZM61.5491 76.8215V33.044H55.5491V76.8215H61.5491ZM61.5491 33.044C61.5491 28.3711 65.3571 24.563 70.03 24.563V18.563C62.0434 18.563 55.5491 25.0573 55.5491 33.044H61.5491ZM70.03 24.563C74.7056 24.563 78.5188 28.3737 78.5188 33.044H84.5188C84.5188 25.0547 78.014 18.563 70.03 18.563V24.563ZM78.5188 33.044V37.4693H84.5188V33.044H78.5188ZM81.5188 40.4693H82.6896V34.4693H81.5188V40.4693ZM85.6896 37.4693V33.044H79.6896V37.4693H85.6896ZM85.6896 33.044C85.6896 24.4071 78.662 17.3922 70.03 17.3922V23.3922C75.3532 23.3922 79.6896 27.7257 79.6896 33.044H85.6896ZM70.03 17.3922C61.3956 17.3922 54.3783 24.4095 54.3783 33.044H60.3783C60.3783 27.7232 64.7093 23.3922 70.03 23.3922V17.3922ZM54.3783 33.044V76.8215H60.3783V33.044H54.3783ZM54.3783 76.8215C54.3783 83.7344 48.7517 89.361 41.8388 89.361V95.361C52.0654 95.361 60.3783 87.0481 60.3783 76.8215H54.3783ZM41.8388 89.361C34.9279 89.361 29.3071 83.7364 29.3071 76.8215H23.3071C23.3071 87.0462 31.6103 95.361 41.8388 95.361V89.361ZM29.3071 76.8215V75.8381H23.3071V76.8215H29.3071ZM26.3071 72.8381H25.1364V78.8381H26.3071V72.8381Z" fill="#7893F5" mask="url(#path-1-inside-1_22145_3973)"/>
<mask id="path-3-inside-2_22145_3973" fill="white">
<path d="M25.6983 65.8405L24.8866 65.8248C24.7837 65.8188 24.6873 65.7731 24.6174 65.6975C24.5475 65.6218 24.5097 65.522 24.5119 65.419C24.5139 65.3677 24.526 65.3174 24.5475 65.2708C24.569 65.2242 24.5995 65.1823 24.6372 65.1475C24.6749 65.1127 24.7191 65.0857 24.7672 65.068C24.8154 65.0503 24.8665 65.0423 24.9178 65.0443L25.6983 65.06C26.9711 65.0581 28.2409 64.9379 29.4914 64.7009C29.5436 64.6867 29.5981 64.6834 29.6515 64.6914C29.705 64.6993 29.7562 64.7183 29.802 64.747C29.8477 64.7758 29.887 64.8137 29.9173 64.8585C29.9476 64.9032 29.9683 64.9537 29.9781 65.0069C29.9878 65.06 29.9865 65.1146 29.974 65.1672C29.9616 65.2198 29.9383 65.2693 29.9058 65.3124C29.8733 65.3555 29.8321 65.3915 29.785 65.4179C29.7378 65.4443 29.6857 65.4606 29.6319 65.4658C28.3356 65.7156 27.0184 65.8411 25.6983 65.8405ZM20.2817 65.1224L20.1802 65.1068C18.6467 64.6849 17.165 64.0932 15.7627 63.3429C15.7168 63.3191 15.6762 63.2864 15.643 63.2467C15.6099 63.207 15.585 63.1612 15.5698 63.1118C15.5545 63.0624 15.5492 63.0105 15.5542 62.9591C15.5592 62.9076 15.5743 62.8577 15.5988 62.8122C15.6225 62.7662 15.6552 62.7255 15.6951 62.6926C15.735 62.6597 15.7811 62.6352 15.8307 62.6206C15.8803 62.606 15.9324 62.6016 15.9837 62.6077C16.0351 62.6138 16.0847 62.6303 16.1295 62.6561C17.4799 63.383 18.9099 63.9514 20.391 64.3497C20.492 64.3658 20.5827 64.4209 20.6435 64.5032C20.7043 64.5855 20.7304 64.6884 20.716 64.7898C20.7017 64.8911 20.6481 64.9827 20.5669 65.0449C20.4857 65.1072 20.3832 65.135 20.2817 65.1224ZM34.0183 64.0844C33.9432 64.0841 33.8699 64.0618 33.8074 64.0201C33.745 63.9785 33.6962 63.9194 33.667 63.8502C33.6248 63.756 33.6216 63.6489 33.6582 63.5523C33.6948 63.4558 33.7681 63.3777 33.8622 63.3351C35.2627 62.7156 36.5878 61.9379 37.8114 61.017C37.8949 60.9569 37.9985 60.9315 38.1003 60.946C38.2022 60.9606 38.2945 61.014 38.3578 61.0951C38.3896 61.1357 38.4128 61.1823 38.4261 61.2321C38.4394 61.2819 38.4425 61.3339 38.4352 61.3849C38.4279 61.4359 38.4104 61.485 38.3837 61.529C38.357 61.5731 38.3216 61.6114 38.2797 61.6414C37.0085 62.5963 35.6341 63.4053 34.1822 64.0531C34.1303 64.0748 34.0745 64.0854 34.0183 64.0844ZM12.11 60.7205C12.0143 60.7208 11.9222 60.6845 11.8524 60.619C10.6543 59.5693 9.58064 58.3856 8.65242 57.0912C8.62267 57.0499 8.60147 57.003 8.59007 56.9534C8.57867 56.9038 8.57729 56.8524 8.58601 56.8022C8.59474 56.7521 8.61339 56.7041 8.64087 56.6613C8.66836 56.6184 8.70413 56.5815 8.74607 56.5526C8.78755 56.5223 8.8346 56.5005 8.88454 56.4883C8.93448 56.4762 8.98632 56.4741 9.03708 56.4821C9.08784 56.4901 9.13653 56.508 9.18035 56.5348C9.22416 56.5617 9.26225 56.5969 9.29242 56.6385C10.1851 57.8834 11.2168 59.0224 12.3675 60.0336C12.445 60.1027 12.4924 60.1993 12.4997 60.3028C12.507 60.4063 12.4736 60.5085 12.4066 60.5878C12.3689 60.6291 12.3232 60.6622 12.2721 60.6851C12.2211 60.7079 12.1659 60.72 12.11 60.7205ZM41.4407 58.5117C41.3668 58.5111 41.2946 58.4895 41.2325 58.4494C41.1704 58.4094 41.121 58.3526 41.0899 58.2855C41.0588 58.2185 41.0474 58.144 41.057 58.0707C41.0666 57.9975 41.0968 57.9284 41.1441 57.8717C42.1312 56.6994 42.9821 55.419 43.6807 54.0551C43.7013 54.0055 43.732 53.9608 43.7707 53.9236C43.8094 53.8865 43.8553 53.8577 43.9057 53.8391C43.956 53.8205 44.0096 53.8124 44.0632 53.8155C44.1168 53.8186 44.1692 53.8326 44.217 53.8568C44.2649 53.8811 44.3073 53.9149 44.3415 53.9562C44.3758 53.9976 44.4011 54.0455 44.416 54.0971C44.4308 54.1486 44.4349 54.2027 44.4279 54.2559C44.4209 54.3091 44.403 54.3603 44.3753 54.4063C43.6521 55.8236 42.7696 57.1538 41.7451 58.3712C41.708 58.4157 41.6614 58.4515 41.6088 58.4758C41.5561 58.5001 41.4987 58.5123 41.4407 58.5117ZM6.69339 53.1809C6.61658 53.1796 6.54182 53.156 6.47811 53.113C6.4144 53.0701 6.36448 53.0097 6.33437 52.939C5.72406 51.4689 5.28159 49.9346 5.01534 48.3653C5.00644 48.315 5.00771 48.2635 5.01906 48.2137C5.03042 48.1639 5.05164 48.1168 5.08146 48.0754C5.11129 48.0339 5.14912 47.9988 5.19273 47.9722C5.23633 47.9456 5.28482 47.928 5.33534 47.9205C5.38575 47.9104 5.4377 47.9108 5.48793 47.9217C5.53817 47.9326 5.58563 47.9537 5.62736 47.9837C5.66909 48.0137 5.70419 48.052 5.73049 48.0962C5.75679 48.1404 5.77372 48.1895 5.78022 48.2405C6.03918 49.7505 6.46589 51.227 7.05242 52.6424C7.07272 52.6895 7.08337 52.7401 7.08373 52.7913C7.08408 52.8426 7.07413 52.8934 7.05448 52.9407C7.03482 52.988 7.00586 53.0309 6.9693 53.0668C6.93275 53.1027 6.88935 53.1309 6.84168 53.1497C6.79546 53.1719 6.74461 53.1826 6.69339 53.1809ZM45.671 50.2463L45.5773 50.2307C45.4771 50.2066 45.3904 50.1438 45.3363 50.0561C45.2822 49.9684 45.265 49.8628 45.2885 49.7624C45.66 48.2759 45.8616 46.752 45.8895 45.22C45.8895 45.1681 45.8998 45.1167 45.9199 45.0688C45.94 45.0209 45.9695 44.9776 46.0065 44.9412C46.0436 44.9049 46.0876 44.8763 46.1358 44.8572C46.1841 44.838 46.2356 44.8287 46.2875 44.8297C46.3897 44.8356 46.4859 44.8799 46.5569 44.9537C46.6278 45.0275 46.6682 45.1254 46.67 45.2278C46.6418 46.8199 46.435 48.4038 46.0534 49.9497C46.0311 50.0343 45.9816 50.1092 45.9124 50.1628C45.8433 50.2164 45.7584 50.2458 45.671 50.2463ZM5.11681 44.0258C5.01331 44.0258 4.91405 43.9847 4.84086 43.9115C4.76768 43.8383 4.72656 43.7391 4.72656 43.6356V38.9526C4.72656 38.8491 4.76768 38.7499 4.84086 38.6767C4.91405 38.6035 5.01331 38.5624 5.11681 38.5624C5.22031 38.5624 5.31956 38.6035 5.39275 38.6767C5.46593 38.7499 5.50705 38.8491 5.50705 38.9526V43.6356C5.50705 43.7391 5.46593 43.8383 5.39275 43.9115C5.31956 43.9847 5.22031 44.0258 5.11681 44.0258ZM46.2797 40.9273C46.1762 40.9273 46.077 40.8862 46.0038 40.813C45.9306 40.7398 45.8895 40.6405 45.8895 40.537V35.8541C45.8895 35.7506 45.9306 35.6514 46.0038 35.5782C46.077 35.505 46.1762 35.4639 46.2797 35.4639C46.3832 35.4639 46.4825 35.505 46.5557 35.5782C46.6289 35.6514 46.67 35.7506 46.67 35.8541V40.537C46.67 40.6405 46.6289 40.7398 46.5557 40.813C46.4825 40.8862 46.3832 40.9273 46.2797 40.9273Z"/>
</mask>
<path d="M25.6983 65.8405L24.8866 65.8248C24.7837 65.8188 24.6873 65.7731 24.6174 65.6975C24.5475 65.6218 24.5097 65.522 24.5119 65.419C24.5139 65.3677 24.526 65.3174 24.5475 65.2708C24.569 65.2242 24.5995 65.1823 24.6372 65.1475C24.6749 65.1127 24.7191 65.0857 24.7672 65.068C24.8154 65.0503 24.8665 65.0423 24.9178 65.0443L25.6983 65.06C26.9711 65.0581 28.2409 64.9379 29.4914 64.7009C29.5436 64.6867 29.5981 64.6834 29.6515 64.6914C29.705 64.6993 29.7562 64.7183 29.802 64.747C29.8477 64.7758 29.887 64.8137 29.9173 64.8585C29.9476 64.9032 29.9683 64.9537 29.9781 65.0069C29.9878 65.06 29.9865 65.1146 29.974 65.1672C29.9616 65.2198 29.9383 65.2693 29.9058 65.3124C29.8733 65.3555 29.8321 65.3915 29.785 65.4179C29.7378 65.4443 29.6857 65.4606 29.6319 65.4658C28.3356 65.7156 27.0184 65.8411 25.6983 65.8405ZM20.2817 65.1224L20.1802 65.1068C18.6467 64.6849 17.165 64.0932 15.7627 63.3429C15.7168 63.3191 15.6762 63.2864 15.643 63.2467C15.6099 63.207 15.585 63.1612 15.5698 63.1118C15.5545 63.0624 15.5492 63.0105 15.5542 62.9591C15.5592 62.9076 15.5743 62.8577 15.5988 62.8122C15.6225 62.7662 15.6552 62.7255 15.6951 62.6926C15.735 62.6597 15.7811 62.6352 15.8307 62.6206C15.8803 62.606 15.9324 62.6016 15.9837 62.6077C16.0351 62.6138 16.0847 62.6303 16.1295 62.6561C17.4799 63.383 18.9099 63.9514 20.391 64.3497C20.492 64.3658 20.5827 64.4209 20.6435 64.5032C20.7043 64.5855 20.7304 64.6884 20.716 64.7898C20.7017 64.8911 20.6481 64.9827 20.5669 65.0449C20.4857 65.1072 20.3832 65.135 20.2817 65.1224ZM34.0183 64.0844C33.9432 64.0841 33.8699 64.0618 33.8074 64.0201C33.745 63.9785 33.6962 63.9194 33.667 63.8502C33.6248 63.756 33.6216 63.6489 33.6582 63.5523C33.6948 63.4558 33.7681 63.3777 33.8622 63.3351C35.2627 62.7156 36.5878 61.9379 37.8114 61.017C37.8949 60.9569 37.9985 60.9315 38.1003 60.946C38.2022 60.9606 38.2945 61.014 38.3578 61.0951C38.3896 61.1357 38.4128 61.1823 38.4261 61.2321C38.4394 61.2819 38.4425 61.3339 38.4352 61.3849C38.4279 61.4359 38.4104 61.485 38.3837 61.529C38.357 61.5731 38.3216 61.6114 38.2797 61.6414C37.0085 62.5963 35.6341 63.4053 34.1822 64.0531C34.1303 64.0748 34.0745 64.0854 34.0183 64.0844ZM12.11 60.7205C12.0143 60.7208 11.9222 60.6845 11.8524 60.619C10.6543 59.5693 9.58064 58.3856 8.65242 57.0912C8.62267 57.0499 8.60147 57.003 8.59007 56.9534C8.57867 56.9038 8.57729 56.8524 8.58601 56.8022C8.59474 56.7521 8.61339 56.7041 8.64087 56.6613C8.66836 56.6184 8.70413 56.5815 8.74607 56.5526C8.78755 56.5223 8.8346 56.5005 8.88454 56.4883C8.93448 56.4762 8.98632 56.4741 9.03708 56.4821C9.08784 56.4901 9.13653 56.508 9.18035 56.5348C9.22416 56.5617 9.26225 56.5969 9.29242 56.6385C10.1851 57.8834 11.2168 59.0224 12.3675 60.0336C12.445 60.1027 12.4924 60.1993 12.4997 60.3028C12.507 60.4063 12.4736 60.5085 12.4066 60.5878C12.3689 60.6291 12.3232 60.6622 12.2721 60.6851C12.2211 60.7079 12.1659 60.72 12.11 60.7205ZM41.4407 58.5117C41.3668 58.5111 41.2946 58.4895 41.2325 58.4494C41.1704 58.4094 41.121 58.3526 41.0899 58.2855C41.0588 58.2185 41.0474 58.144 41.057 58.0707C41.0666 57.9975 41.0968 57.9284 41.1441 57.8717C42.1312 56.6994 42.9821 55.419 43.6807 54.0551C43.7013 54.0055 43.732 53.9608 43.7707 53.9236C43.8094 53.8865 43.8553 53.8577 43.9057 53.8391C43.956 53.8205 44.0096 53.8124 44.0632 53.8155C44.1168 53.8186 44.1692 53.8326 44.217 53.8568C44.2649 53.8811 44.3073 53.9149 44.3415 53.9562C44.3758 53.9976 44.4011 54.0455 44.416 54.0971C44.4308 54.1486 44.4349 54.2027 44.4279 54.2559C44.4209 54.3091 44.403 54.3603 44.3753 54.4063C43.6521 55.8236 42.7696 57.1538 41.7451 58.3712C41.708 58.4157 41.6614 58.4515 41.6088 58.4758C41.5561 58.5001 41.4987 58.5123 41.4407 58.5117ZM6.69339 53.1809C6.61658 53.1796 6.54182 53.156 6.47811 53.113C6.4144 53.0701 6.36448 53.0097 6.33437 52.939C5.72406 51.4689 5.28159 49.9346 5.01534 48.3653C5.00644 48.315 5.00771 48.2635 5.01906 48.2137C5.03042 48.1639 5.05164 48.1168 5.08146 48.0754C5.11129 48.0339 5.14912 47.9988 5.19273 47.9722C5.23633 47.9456 5.28482 47.928 5.33534 47.9205C5.38575 47.9104 5.4377 47.9108 5.48793 47.9217C5.53817 47.9326 5.58563 47.9537 5.62736 47.9837C5.66909 48.0137 5.70419 48.052 5.73049 48.0962C5.75679 48.1404 5.77372 48.1895 5.78022 48.2405C6.03918 49.7505 6.46589 51.227 7.05242 52.6424C7.07272 52.6895 7.08337 52.7401 7.08373 52.7913C7.08408 52.8426 7.07413 52.8934 7.05448 52.9407C7.03482 52.988 7.00586 53.0309 6.9693 53.0668C6.93275 53.1027 6.88935 53.1309 6.84168 53.1497C6.79546 53.1719 6.74461 53.1826 6.69339 53.1809ZM45.671 50.2463L45.5773 50.2307C45.4771 50.2066 45.3904 50.1438 45.3363 50.0561C45.2822 49.9684 45.265 49.8628 45.2885 49.7624C45.66 48.2759 45.8616 46.752 45.8895 45.22C45.8895 45.1681 45.8998 45.1167 45.9199 45.0688C45.94 45.0209 45.9695 44.9776 46.0065 44.9412C46.0436 44.9049 46.0876 44.8763 46.1358 44.8572C46.1841 44.838 46.2356 44.8287 46.2875 44.8297C46.3897 44.8356 46.4859 44.8799 46.5569 44.9537C46.6278 45.0275 46.6682 45.1254 46.67 45.2278C46.6418 46.8199 46.435 48.4038 46.0534 49.9497C46.0311 50.0343 45.9816 50.1092 45.9124 50.1628C45.8433 50.2164 45.7584 50.2458 45.671 50.2463ZM5.11681 44.0258C5.01331 44.0258 4.91405 43.9847 4.84086 43.9115C4.76768 43.8383 4.72656 43.7391 4.72656 43.6356V38.9526C4.72656 38.8491 4.76768 38.7499 4.84086 38.6767C4.91405 38.6035 5.01331 38.5624 5.11681 38.5624C5.22031 38.5624 5.31956 38.6035 5.39275 38.6767C5.46593 38.7499 5.50705 38.8491 5.50705 38.9526V43.6356C5.50705 43.7391 5.46593 43.8383 5.39275 43.9115C5.31956 43.9847 5.22031 44.0258 5.11681 44.0258ZM46.2797 40.9273C46.1762 40.9273 46.077 40.8862 46.0038 40.813C45.9306 40.7398 45.8895 40.6405 45.8895 40.537V35.8541C45.8895 35.7506 45.9306 35.6514 46.0038 35.5782C46.077 35.505 46.1762 35.4639 46.2797 35.4639C46.3832 35.4639 46.4825 35.505 46.5557 35.5782C46.6289 35.6514 46.67 35.7506 46.67 35.8541V40.537C46.67 40.6405 46.6289 40.7398 46.5557 40.813C46.4825 40.8862 46.3832 40.9273 46.2797 40.9273Z" fill="#7893F5" stroke="#7893F5" stroke-width="6" mask="url(#path-3-inside-2_22145_3973)"/>
<path d="M6.92804 37.0253H3.41585C3.10535 37.0253 2.80757 36.9019 2.58801 36.6824C2.36846 36.4628 2.24512 36.1651 2.24512 35.8546V13.3219C2.24925 11.0945 3.13644 8.95964 4.71217 7.38537C6.2879 5.8111 8.42359 4.92589 10.651 4.92383C10.9615 4.92383 11.2592 5.04717 11.4788 5.26673C11.6984 5.48628 11.8217 5.78406 11.8217 6.09456V9.60676C11.8217 9.91725 11.6984 10.215 11.4788 10.4346C11.2592 10.6541 10.9615 10.7775 10.651 10.7775C9.97544 10.7775 9.32745 11.0453 8.84905 11.5222C8.37064 11.9992 8.10084 12.6463 8.09878 13.3219V35.8546C8.09878 36.1651 7.97543 36.4628 7.75587 36.6824C7.53632 36.9019 7.23854 37.0253 6.92804 37.0253ZM4.58658 34.6838H5.75731V13.3219C5.76141 12.2294 6.12977 11.1696 6.80409 10.31C7.47841 9.45053 8.42016 8.8405 9.48024 8.57651V7.38237C8.10397 7.65466 6.86444 8.39511 5.97233 9.47788C5.08021 10.5607 4.59056 11.9189 4.58658 13.3219V34.6838Z" fill="#7893F5"/>
<path d="M48.0201 37.0253H44.5079C44.1974 37.0253 43.8996 36.9019 43.6801 36.6824C43.4605 36.4628 43.3372 36.1651 43.3372 35.8546V13.3219C43.3372 12.6471 43.0691 11.9999 42.592 11.5227C42.1148 11.0456 41.4676 10.7775 40.7928 10.7775C40.4823 10.7775 40.1845 10.6541 39.965 10.4346C39.7454 10.215 39.6221 9.91725 39.6221 9.60676V6.09456C39.6221 5.78406 39.7454 5.48628 39.965 5.26673C40.1845 5.04717 40.4823 4.92383 40.7928 4.92383C43.0195 4.92589 45.1543 5.81135 46.7288 7.38584C48.3033 8.96034 49.1888 11.0952 49.1908 13.3219V35.8546C49.1908 36.1651 49.0675 36.4628 48.848 36.6824C48.6284 36.9019 48.3306 37.0253 48.0201 37.0253ZM45.6787 34.6838H46.8494V13.3219C46.8472 11.9196 46.3592 10.5615 45.4684 9.47855C44.5776 8.39563 43.339 7.65487 41.9635 7.38237V8.57651C43.0228 8.84076 43.9636 9.4511 44.6366 10.3107C45.3096 11.1704 45.6763 12.2301 45.6787 13.3219V34.6838Z" fill="#7893F5"/>
<path d="M30.1939 75.8387H21.2495C20.939 75.8387 20.6413 75.7154 20.4217 75.4958C20.2022 75.2763 20.0788 74.9785 20.0788 74.668V68.8143C14.5891 67.5365 9.69347 64.4382 6.18883 60.0238C2.68419 55.6093 0.776878 50.1386 0.777344 44.5021V35.8543C0.777344 35.5438 0.900689 35.246 1.12024 35.0265C1.3398 34.8069 1.63758 34.6836 1.94808 34.6836H8.19198C8.50185 34.6856 8.79844 34.8096 9.01755 35.0288C9.23666 35.2479 9.36067 35.5445 9.36271 35.8543V44.5021C9.36271 48.8408 11.0862 53.0018 14.1542 56.0697C17.2221 59.1376 21.3831 60.8612 25.7217 60.8612C30.0604 60.8612 34.2214 59.1376 37.2893 56.0697C40.3572 53.0018 42.0808 48.8408 42.0808 44.5021V35.8543C42.0828 35.5445 42.2068 35.2479 42.4259 35.0288C42.645 34.8096 42.9416 34.6856 43.2515 34.6836H49.4954C49.8059 34.6836 50.1037 34.8069 50.3232 35.0265C50.5428 35.246 50.6661 35.5438 50.6661 35.8543V44.5021C50.6666 50.1386 48.7593 55.6093 45.2546 60.0238C41.75 64.4382 36.8544 67.5365 31.3647 68.8143V74.668C31.3647 74.9785 31.2413 75.2763 31.0218 75.4958C30.8022 75.7154 30.5044 75.8387 30.1939 75.8387ZM22.4203 73.4972H29.0232V67.8621C29.0223 67.5896 29.1172 67.3255 29.2912 67.1158C29.4653 66.9061 29.7074 66.7642 29.9754 66.7148C35.1383 65.7209 39.794 62.9601 43.1425 58.9065C46.491 54.853 48.3233 49.7599 48.3247 44.5021V37.0251H44.4222V44.5021C44.4222 46.9579 43.9385 49.3896 42.9987 51.6585C42.0589 53.9273 40.6815 55.9889 38.945 57.7254C37.2085 59.4619 35.1469 60.8393 32.8781 61.7791C30.6093 62.7189 28.1775 63.2026 25.7217 63.2026C23.266 63.2026 20.8342 62.7189 18.5654 61.7791C16.2965 60.8393 14.235 59.4619 12.4985 57.7254C10.762 55.9889 9.38453 53.9273 8.44474 51.6585C7.50495 49.3896 7.02125 46.9579 7.02125 44.5021V37.0251H3.11881V44.5021C3.12014 49.7599 4.95246 54.853 8.30097 58.9065C11.6495 62.9601 16.3051 65.7209 21.4681 66.7148C21.7361 66.7642 21.9782 66.9061 22.1522 67.1158C22.3263 67.3255 22.4211 67.5896 22.4203 67.8621V73.4972Z" fill="#4D73FF"/>
<path d="M88.2391 40.373C89.6049 42.3255 90.2393 44.6967 90.0311 47.0703C89.8228 49.444 88.7852 51.6684 87.1004 53.3533C85.4155 55.0381 83.191 56.0758 80.8174 56.284C78.4438 56.4922 76.0726 55.8578 74.1201 54.4921C74.9689 55.7055 76.0733 56.7183 77.3555 57.4593C78.6377 58.2002 80.0666 58.6512 81.5419 58.7806C83.0171 58.91 84.5027 58.7147 85.8944 58.2084C87.286 57.7021 88.5498 56.897 89.597 55.8499C90.6441 54.8027 91.4491 53.5389 91.9555 52.1473C92.4618 50.7557 92.6571 49.27 92.5277 47.7948C92.3982 46.3196 91.9472 44.8906 91.2063 43.6084C90.4654 42.3262 89.4526 41.2219 88.2391 40.373Z" fill="white"/>
<path d="M82.4323 59.9945C76.204 59.9945 71.1309 54.9213 71.1309 48.6852C71.1309 42.4491 76.204 37.376 82.4323 37.376C88.6606 37.376 93.7416 42.4491 93.7416 48.6852C93.7416 54.9213 88.6684 59.9945 82.4323 59.9945ZM82.4323 39.7174C77.4918 39.7174 73.4723 43.7448 73.4723 48.6852C73.4723 53.6257 77.4918 57.653 82.4323 57.653C84.8107 57.653 87.0917 56.7082 88.7735 55.0264C90.4553 53.3446 91.4001 51.0637 91.4001 48.6852C91.4001 46.3068 90.4553 44.0258 88.7735 42.344C87.0917 40.6623 84.8107 39.7174 82.4323 39.7174Z" fill="#7893F5"/>
<path d="M84.1651 46.9605V43.5029H80.7076V46.9605H77.25V50.4181H80.7076V53.8678H84.1651V50.4181H87.6227V46.9605H84.1651Z" fill="#7893F5"/>
<path d="M13.9751 15.2181C13.3847 15.2181 12.8001 15.1018 12.2547 14.8759C11.7093 14.65 11.2137 14.3188 10.7962 13.9013C10.3788 13.4839 10.0476 12.9883 9.8217 12.4429C9.59577 11.8974 9.47949 11.3128 9.47949 10.7225V4.97808C9.52785 3.81716 10.023 2.71986 10.8616 1.91553C11.7001 1.11121 12.8171 0.662109 13.979 0.662109C15.1409 0.662109 16.2579 1.11121 17.0964 1.91553C17.935 2.71986 18.4302 3.81716 18.4785 4.97808V10.7225C18.4764 11.9155 18.0011 13.059 17.1567 13.9018C16.3124 14.7447 15.1681 15.2181 13.9751 15.2181ZM13.9751 2.82394C13.4044 2.82599 12.8577 3.05361 12.4542 3.45715C12.0506 3.86068 11.823 4.4074 11.821 4.97808V10.7225C11.854 11.2724 12.0958 11.7889 12.4969 12.1666C12.898 12.5443 13.4281 12.7546 13.979 12.7546C14.5299 12.7546 15.06 12.5443 15.4611 12.1666C15.8622 11.7889 16.104 11.2724 16.1371 10.7225V4.97808C16.135 4.40605 15.9063 3.85816 15.5011 3.4544C15.0959 3.05064 14.5471 2.82393 13.9751 2.82394Z" fill="#7893F5"/>
<path d="M37.4683 15.2181C36.2752 15.2181 35.1309 14.7447 34.2866 13.9018C33.4423 13.059 32.9669 11.9155 32.9648 10.7225V4.97808C33.0132 3.81716 33.5084 2.71986 34.3469 1.91553C35.1855 1.11121 36.3024 0.662109 37.4644 0.662109C38.6263 0.662109 39.7432 1.11121 40.5818 1.91553C41.4203 2.71986 41.9155 3.81716 41.9639 4.97808V10.7225C41.9639 11.9148 41.4902 13.0583 40.6471 13.9013C39.804 14.7444 38.6606 15.2181 37.4683 15.2181ZM37.4683 2.82394C36.8962 2.82393 36.3475 3.05064 35.9423 3.4544C35.5371 3.85816 35.3084 4.40605 35.3063 4.97808V10.7225C35.3394 11.2724 35.5812 11.7889 35.9822 12.1666C36.3833 12.5443 36.9134 12.7546 37.4644 12.7546C38.0153 12.7546 38.5454 12.5443 38.9465 12.1666C39.3475 11.7889 39.5893 11.2724 39.6224 10.7225V4.97808C39.6203 4.4074 39.3927 3.86068 38.9892 3.45715C38.5857 3.05361 38.0389 2.82599 37.4683 2.82394Z" fill="#7893F5"/>
</svg>
