<svg width="40" height="28" viewBox="0 0 40 28" fill="none" xmlns="http://www.w3.org/2000/svg">
<g clip-path="url(#clip0_22163_3534)">
<path d="M15.177 9.50008L9.94239 18.5458H6.51852L3.95062 11.314C3.78601 10.8605 3.65432 10.7173 3.19342 10.5264C2.17914 10.1725 1.10566 9.91573 0 9.76263L0.0658436 9.50008H5.56379C6.30694 9.50252 6.93632 9.89796 7.04527 10.4309L8.39506 15.6579L11.7531 9.50008H15.177ZM28.5761 15.5863C28.5761 13.1995 24.0329 13.0563 24.0658 12.0062C24.0658 11.672 24.4938 11.3379 25.4486 11.2424C26.5439 11.1683 27.6467 11.3084 28.642 11.6482L29.2016 9.73876C28.235 9.46967 27.2083 9.33212 26.1728 9.33301C22.9794 9.33301 20.7407 10.5741 20.7078 12.3164C20.6749 13.6291 22.321 14.3452 23.5391 14.7748C24.7572 15.2044 25.2181 15.5147 25.2181 15.8966C25.2181 16.4932 24.1975 16.7796 23.2757 16.7796C22.1173 16.8029 20.9708 16.6053 19.9506 16.2068L19.358 18.1878C20.498 18.5195 21.7183 18.6819 22.9465 18.6652C26.3374 18.689 28.5432 17.4718 28.5761 15.5863ZM37.0041 18.5458H40L37.3992 9.50008H34.6337C34.0268 9.49481 33.4777 9.7602 33.251 10.1684L28.3786 18.5458H31.7695L32.428 17.1854H36.5761L37.0041 18.5458ZM33.3827 15.3476L35.0946 11.9584L36.0823 15.3476H33.3827ZM19.786 9.50008L17.1193 18.5458H13.893L16.5597 9.50008H19.786Z" fill="#1A1F71"/>
</g>
<defs>
<clipPath id="clip0_22163_3534">
<rect width="40" height="28" fill="white"/>
</clipPath>
</defs>
</svg>
