<svg width="146" height="146" viewBox="0 0 146 146" fill="none" xmlns="http://www.w3.org/2000/svg">
<path d="M49.6475 24.5342C27.6214 46.5609 27.6214 82.2733 49.6475 104.3C71.6742 126.326 107.387 126.326 129.413 104.3L49.6475 24.5342Z" fill="#009BDE"/>
<path d="M34.043 74.499C36.0162 85.4141 41.2094 95.8618 49.6465 104.3C60.2616 114.914 74.0552 120.398 87.9642 120.782C83.5769 94.7971 61.1722 74.9377 34.043 74.499Z" fill="#6EB4E7"/>
<path d="M121.539 96.4268C114.784 103.181 114.784 114.133 121.539 120.887C128.294 127.642 139.245 127.642 145.999 120.887L121.539 96.4268Z" fill="#3288C7"/>
<path d="M68.8252 81.1681C81.8395 94.1818 102.941 94.1818 115.955 81.1681C128.97 68.1538 128.97 47.0524 115.955 34.0381L68.8252 81.1681Z" fill="#6EB4E7"/>
<path d="M68.8252 81.1684C79.8269 92.1694 97.6637 92.1694 108.665 81.1684C119.666 70.1667 119.666 52.3298 108.665 41.3281L68.8252 81.1684Z" fill="#3288C7"/>
<path d="M15.7362 38.3203H19.6701V54.0565H0C0 45.3655 7.04514 38.3203 15.7362 38.3203Z" fill="#FFB819"/>
<path d="M36.2328 64.996C48.6449 64.996 58.7069 54.934 58.7069 42.5219C58.7069 30.1098 48.6449 20.0479 36.2328 20.0479C23.8208 20.0479 13.7588 30.1098 13.7588 42.5219C13.7588 54.934 23.8208 64.996 36.2328 64.996Z" fill="#009BDE"/>
<path d="M33.1268 46.5915C37.1237 46.5915 40.3639 43.3513 40.3639 39.3543C40.3639 35.3574 37.1237 32.1172 33.1268 32.1172C29.1298 32.1172 25.8896 35.3574 25.8896 39.3543C25.8896 43.3513 29.1298 46.5915 33.1268 46.5915Z" fill="white"/>
<path d="M33.1264 42.9725C35.1249 42.9725 36.7449 41.3524 36.7449 39.3539C36.7449 37.3554 35.1249 35.7354 33.1264 35.7354C31.1279 35.7354 29.5078 37.3554 29.5078 39.3539C29.5078 41.3524 31.1279 42.9725 33.1264 42.9725Z" fill="#512C1D"/>
</svg>
