<svg width="58" height="37" viewBox="0 0 58 37" fill="none" xmlns="http://www.w3.org/2000/svg">
<g clip-path="url(#clip0_22163_3872)">
<path d="M40.459 17.7969V25.7889H44.9205V21.0529H49.9769C52.1036 21.0381 53.9105 19.6839 54.5946 17.7969H40.459Z" fill="#37A72E"/>
<path d="M39.8643 11.2109C40.1245 14.4743 43.2327 17.0569 47.025 17.0569C47.0399 17.0569 54.7807 17.0569 54.7807 17.0569C54.8402 16.7609 54.8699 16.4501 54.8699 16.1319C54.8699 13.4235 52.6763 11.2331 49.9622 11.2109H39.8643Z" fill="url(#paint0_linear_22163_3872)"/>
<path d="M33.2612 16.9755C33.3133 16.8867 33.3951 16.8349 33.4992 16.8349C33.6479 16.8349 33.7594 16.9533 33.7669 17.0939V25.7149H38.2284V11.2109H33.7669C33.2017 11.2331 32.5623 11.6401 32.3243 12.1507L28.7774 19.7283C28.7699 19.7579 28.7551 19.7875 28.7402 19.8171C28.6881 19.8911 28.5989 19.9429 28.4948 19.9429C28.3312 19.9429 28.1974 19.8097 28.1974 19.6469V11.2109H23.7358V25.7149H28.1974C28.7551 25.6853 29.3797 25.2783 29.6176 24.7751L33.2612 16.9977C33.2538 16.9903 33.2612 16.9829 33.2612 16.9755Z" fill="#37A72E"/>
<path d="M16.6046 17.2267L13.9946 25.7145H10.7823L8.17972 17.2193C8.15741 17.0861 8.03844 16.9825 7.88972 16.9825C7.72613 16.9825 7.59972 17.1157 7.59972 17.2711V25.7071H3.13818V11.2031H6.96767H8.10536C8.92331 11.2031 9.78588 11.8395 10.0238 12.6165L12.1951 19.6835C12.3066 20.0387 12.4777 20.0313 12.5892 19.6835L14.7605 12.6165C14.9984 11.8321 15.861 11.2031 16.679 11.2031H17.8166H21.6461V25.7071H17.1846V17.2711C17.1846 17.2711 17.1846 17.2711 17.1846 17.2637C17.1846 17.1009 17.0507 16.9751 16.8946 16.9751C16.7459 16.9825 16.6269 17.0861 16.6046 17.2267Z" fill="#37A72E"/>
</g>
<defs>
<linearGradient id="paint0_linear_22163_3872" x1="39.8661" y1="14.1339" x2="54.869" y2="14.1339" gradientUnits="userSpaceOnUse">
<stop stop-color="#00A0E5"/>
<stop offset="1" stop-color="#0077C3"/>
</linearGradient>
<clipPath id="clip0_22163_3872">
<rect width="58" height="37" fill="white"/>
</clipPath>
</defs>
</svg>
