<svg width="79" height="99" viewBox="0 0 79 99" fill="none" xmlns="http://www.w3.org/2000/svg">
<path fill-rule="evenodd" clip-rule="evenodd" d="M46.7017 9.76732C45.3811 6.37639 43.5026 3.87504 41.1186 2.33232C38.8203 0.845015 36.096 0.272993 33.0006 0.617842C32.124 -0.0818653 30.9725 -0.219316 30.0881 0.371016C28.9137 1.15513 28.6484 2.92869 29.4963 4.32469C30.3444 5.72069 31.9898 6.21837 33.1642 5.43425C33.552 5.17534 33.8379 4.80748 34.0203 4.38194C37.2032 4.18797 39.6653 5.32762 41.5044 7.83592C43.9225 11.1335 45.2822 16.9258 45.334 24.1462C45.3601 27.7339 45.0704 30.8326 44.7456 33L48.8699 28.7065C48.8951 28.3095 48.9181 27.9111 48.936 27.5119C49.1165 23.4901 49.0665 15.836 46.7017 9.76732ZM20.8868 12.7286C19.3611 15.6326 19.305 18.4166 20.7065 21.1883C22.5488 24.8327 27.0156 28.5257 33.2838 31.5883C36.8068 33.3098 39.955 34.3909 42 34.9457L39.0245 38C37.6298 37.5433 36.1434 36.9878 34.6808 36.3709C31.1001 34.8613 24.4534 31.6194 20.1744 26.8688C17.7833 24.2147 16.4045 21.4089 16.0768 18.5292C15.7604 15.7534 16.4233 12.9593 18.0425 10.2008C17.8065 9.0861 18.1775 7.9492 19.0688 7.36668C20.2524 6.59288 21.91 7.08385 22.7649 8.46214C23.6196 9.84025 23.3525 11.5908 22.1686 12.365C21.7776 12.6206 21.3353 12.7353 20.8868 12.7286ZM68.0113 53.1327C68.9322 54.4117 72.3061 59.0972 67.4007 64.4621C64.9329 67.1612 60.0821 72.1864 50.1992 76.3832C45.8384 78.2355 25.8994 92.8327 19.8252 99L0 84.3223C0 84.3223 22.8051 67.5128 24.7481 63.5354C25.6054 61.7802 25.8752 58.5123 26.1657 54.993C26.4105 52.027 26.6701 48.8825 27.3086 46.3147C27.9256 43.8291 29.0652 40.8602 33.4394 40.3501C35.3663 40.1257 37.2494 40.9736 38.7029 41.6282L38.7034 41.6284L38.7047 41.629C39.1028 41.8083 39.4687 41.973 39.7943 42.0972L50.5209 31.2118C52.6492 29.016 55.1018 27.9214 57.6816 30.4831C60.261 33.0448 59.3699 36.6583 59.3699 36.6583C59.3699 36.6583 61.019 36.0768 63.2005 38.3429C63.5215 38.6763 63.8027 39.0322 64.0264 39.4125C64.8418 40.7948 64.9808 42.4576 64.4381 44.3607C65.1449 44.6639 66.123 45.1934 66.9563 46.0392C67.4518 46.5422 67.8423 47.1053 68.1118 47.7093C68.8047 49.2572 68.7373 51.0292 67.9067 52.9866C67.9228 53.0094 67.9404 53.0342 67.9595 53.0608L68.0113 53.1327ZM69.3725 73.9356C72.2897 71.9939 76.1606 72.8913 78.0186 75.9397C79.877 78.988 79.0181 83.0329 76.1012 84.9748C73.1837 86.9163 69.3128 86.0188 67.4546 82.9705C66.6 81.5682 66.322 79.9554 66.5526 78.4332C64.5236 77.3097 62.6716 76.0542 61 74.6749C62.3435 73.7809 63.545 72.8841 64.6244 72C65.8427 72.915 67.1646 73.765 68.5933 74.5477C68.8337 74.3263 69.0936 74.121 69.3725 73.9356Z" fill="#7893F5"/>
</svg>
